<?xml version="1.0" encoding="UTF-8" standalone="no"?>
<svg
   xmlns:dc="http://purl.org/dc/elements/1.1/"
   xmlns:cc="http://creativecommons.org/ns#"
   xmlns:rdf="http://www.w3.org/1999/02/22-rdf-syntax-ns#"
   xmlns:svg="http://www.w3.org/2000/svg"
   xmlns="http://www.w3.org/2000/svg"
   xmlns:xlink="http://www.w3.org/1999/xlink"
   id="svg52"
   height="255.99998"
   width="256"
   viewBox="0.0041371552 0.00090689302 256 255.99998"
   preserveAspectRatio="xMidYMid meet"
   version="1.1">
  <metadata
     id="metadata56">
    <rdf:RDF>
      <cc:Work
         rdf:about="">
        <dc:format>image/svg+xml</dc:format>
        <dc:type
           rdf:resource="http://purl.org/dc/dcmitype/StillImage" />
        <dc:title></dc:title>
      </cc:Work>
    </rdf:RDF>
  </metadata>
  <defs
     id="defs14">
    <path
       id="cgKBmtKmT"
       d="m 181.42,191.74 c -2.54,0 -5.09,-0.97 -7.03,-2.91 -7.49,-7.49 -67.43,-67.43 -74.92,-74.92 -3.89,-3.89 -3.89,-10.18 -0.01,-14.07 3.89,-3.88 10.18,-3.88 14.07,0 7.49,7.5 67.43,67.44 74.92,74.93 3.88,3.88 3.88,10.18 0,14.06 -1.94,1.94 -4.48,2.91 -7.03,2.91" />
    <path
       id="e4v7qBnAWP"
       d="m 213.14,160.02 c -2.54,0 -5.09,-0.97 -7.03,-2.91 -7.49,-7.49 -67.43,-67.43 -74.92,-74.93 -3.89,-3.88 -3.89,-10.17 0,-14.06 3.88,-3.88 10.17,-3.88 14.06,0 7.49,7.5 67.43,67.44 74.92,74.93 3.89,3.88 3.89,10.18 0,14.06 -1.94,1.94 -4.48,2.91 -7.03,2.91" />
    <path
       id="fTEx49Nsi"
       d="m 77.76,214.48 c -2.54,0 -5.09,-0.97 -7.03,-2.92 C 65.24,206.08 21.34,162.17 15.85,156.69 -12.54,128.3 3.44,97.32 15.85,84.9 22.76,78 78,22.76 84.9,15.85 c 28.39,-28.39 59.37,-12.41 71.79,0 9.49,9.49 85.38,85.39 94.87,94.87 3.88,3.89 3.88,10.18 0,14.06 -3.88,3.88 -10.18,3.88 -14.06,0 -9.49,-9.48 -85.39,-85.38 -94.87,-94.87 -0.02,-0.02 -6.1,-5.9 -14.7,-8.6 -10.43,-3.27 -19.9,-0.46 -28.97,8.6 -6.9,6.91 -62.14,62.15 -69.05,69.05 -0.02,0.02 -5.89,6.1 -8.59,14.7 -3.28,10.43 -0.47,19.91 8.59,28.97 5.49,5.48 49.39,49.39 54.88,54.87 3.88,3.89 3.88,10.18 0,14.06 -1.94,1.95 -4.49,2.92 -7.03,2.92" />
    <path
       id="c62Nsn2dxY"
       d="m 200.51,256.94 c -5.65,0 -10.8,-1.08 -15.19,-2.55 -12.68,-4.22 -21.01,-12.31 -21.92,-13.22 -9.49,-9.49 -85.39,-85.39 -94.87,-94.87 -3.89,-3.89 -3.89,-10.18 0,-14.06 3.88,-3.89 10.17,-3.89 14.06,0 9.48,9.48 85.38,85.38 94.87,94.87 0.02,0.02 6.1,5.9 14.69,8.6 10.44,3.27 19.91,0.46 28.97,-8.6 6.91,-6.91 62.15,-62.15 69.05,-69.05 0.02,-0.02 5.9,-6.1 8.6,-14.7 3.27,-10.43 0.46,-19.91 -8.6,-28.96 -5.49,-5.49 -49.39,-49.4 -54.87,-54.88 -3.89,-3.89 -3.89,-10.18 0,-14.06 3.88,-3.89 10.17,-3.89 14.06,0 5.48,5.48 49.39,49.39 54.87,54.87 18.5,18.5 17.41,37.33 13.23,49.86 -4.23,12.69 -12.32,21.02 -13.23,21.93 -6.9,6.9 -62.14,62.14 -69.05,69.05 -12.02,12.03 -24.19,15.77 -34.67,15.77" />
  </defs>
  <g
     transform="matrix(0.76637976,0,0,0.76637976,5.3839872,29.542423)"
     id="g50">
    <g
       id="g48">
      <g
         id="g22">
        <use
           height="100%"
           width="100%"
           y="0"
           x="0"
           id="use16"
           fill-opacity="1"
           fill="#929ba1"
           opacity="1"
           xlink:href="#cgKBmtKmT" />
        <g
           id="g20">
          <use
             height="100%"
             width="100%"
             y="0"
             x="0"
             id="use18"
             stroke-opacity="0"
             stroke-width="1"
             stroke="#000000"
             fill-opacity="0"
             opacity="1"
             xlink:href="#cgKBmtKmT" />
        </g>
      </g>
      <g
         id="g30">
        <use
           height="100%"
           width="100%"
           y="0"
           x="0"
           id="use24"
           fill-opacity="1"
           fill="#ed114e"
           opacity="1"
           xlink:href="#e4v7qBnAWP" />
        <g
           id="g28">
          <use
             height="100%"
             width="100%"
             y="0"
             x="0"
             id="use26"
             stroke-opacity="0"
             stroke-width="1"
             stroke="#000000"
             fill-opacity="0"
             opacity="1"
             xlink:href="#e4v7qBnAWP" />
        </g>
      </g>
      <g
         id="g38">
        <use
           height="100%"
           width="100%"
           y="0"
           x="0"
           id="use32"
           fill-opacity="1"
           fill="#ed114e"
           opacity="1"
           xlink:href="#fTEx49Nsi" />
        <g
           id="g36">
          <use
             height="100%"
             width="100%"
             y="0"
             x="0"
             id="use34"
             stroke-opacity="0"
             stroke-width="1"
             stroke="#000000"
             fill-opacity="0"
             opacity="1"
             xlink:href="#fTEx49Nsi" />
        </g>
      </g>
      <g
         id="g46">
        <use
           height="100%"
           width="100%"
           y="0"
           x="0"
           id="use40"
           fill-opacity="1"
           fill="#929ba1"
           opacity="1"
           xlink:href="#c62Nsn2dxY" />
        <g
           id="g44">
          <use
             height="100%"
             width="100%"
             y="0"
             x="0"
             id="use42"
             stroke-opacity="0"
             stroke-width="1"
             stroke="#000000"
             fill-opacity="0"
             opacity="1"
             xlink:href="#c62Nsn2dxY" />
        </g>
      </g>
    </g>
  </g>
</svg>
